<!-- sample rectangle -->
<svg width="100" height="100" xmlns="http://www.w3.org/2000/svg">
 
 <!-- gradient definitions -->
 <defs>
  <linearGradient id="soc_bg" x1="0%" y1="0%" x2="0%" y2="100%">
   <stop offset="0%" style="stop-color:#ebeff9;stop-opacity:1" />
   <stop offset="100%" style="stop-color:#ffffff;stop-opacity:1" />
  </linearGradient>
  <linearGradient id="soc_name" x1="0%" y1="0%" x2="0%" y2="100%">
   <stop offset="0%" style="stop-color:#1e2741;stop-opacity:1" />
   <stop offset="100%" style="stop-color:#4b5d75;stop-opacity:1" />
  </linearGradient>
 </defs>

 <!-- chip body -->
 <rect width="100" height="100" fill="url(#soc_bg)" rx="8" stroke="#dddfe6" stroke-width="2" ></rect>
 <rect x="2" y="2" width="96" height="96" fill="url(#soc_bg)" rx="4" stroke="#ffffff" stroke-width="1" ></rect>

 <!-- allwinner logo -->
 <g transform="translate(16.000000,80.000000) scale(0.005000,-0.005000)" fill="url(#soc_name)">
   <path d="M3625 13996 c-7 -10 -56 -19 -165 -30 -205 -20 -395 -55 -580 -106 -139 -38 -187 -52 -200 -59 -9 -5 -30 -12 -49 -16 -18 -4 -44 -13 -59 -21 -15 -8 -35 -14 -44 -14 -9 0 -20 -4 -23 -10 -3 -5 -13 -10 -22 -10 -8 0 -29 -6 -46 -14 -28 -13 -66 -29 -152 -66 -42 -17 -313 -152 -371 -184 -79 -43 -238 -138 -244 -146 -3 -3 -23 -17 -45 -30 -36 -21 -159 -108 -225 -159 -457 -348 -836 -779 -1061 -1209 -27 -50 -53 -100 -59 -110 -15 -28 -76 -164 -90 -202 -7 -19 -19 -48 -26 -65 -7 -16 -22 -61 -34 -100 -12 -38 -28 -88 -36 -110 -7 -22 -20 -74 -29 -115 -9 -41 -21 -93 -26 -115 -35 -152 -50 -481 -29 -622 6 -38 14 -97 19 -133 14 -94 58 -269 72 -284 5 -6 9 -16 9 -24 0 -7 8 -32 18 -55 10 -23 27 -62 37 -87 11 -25 29 -61 40 -80 12 -19 25 -44 29 -54 6 -19 90 -149 111 -173 5 -7 15 -18 20 -25 111 -144 209 -242 353 -353 7 -5 18 -15 25 -20 66 -57 298 -187 427 -239 36 -15 74 -31 85 -35 33 -14 105 -38 185 -61 41 -11 91 -25 110 -31 19 -5 60 -14 90 -20 210 -38 243 -41 575 -45 302 -4 357 -3 490 15 199 27 286 44 430 81 66 17 138 36 160 41 46 11 123 37 146 49 9 5 33 12 53 15 20 4 39 11 42 16 3 5 13 9 22 9 9 0 30 7 46 15 15 8 33 15 38 15 5 0 30 9 56 21 26 11 56 24 67 29 519 224 989 541 1355 911 154 157 156 159 140 169 -8 5 -18 10 -21 10 -4 0 -60 -53 -125 -118 -118 -117 -166 -160 -258 -237 -26 -22 -62 -52 -80 -67 -17 -15 -34 -28 -37 -28 -3 0 -19 -11 -35 -25 -136 -118 -589 -380 -829 -479 -22 -10 -47 -21 -55 -25 -9 -5 -30 -12 -48 -15 -17 -4 -34 -12 -37 -17 -4 -5 -13 -9 -22 -9 -8 0 -29 -6 -46 -14 -50 -22 -155 -56 -175 -56 -10 0 -22 -4 -28 -9 -5 -5 -31 -14 -59 -20 -27 -7 -77 -19 -110 -27 -85 -22 -197 -43 -290 -55 -44 -5 -99 -14 -123 -20 -24 -5 -139 -12 -255 -15 -400 -11 -688 34 -1022 160 -80 30 -258 117 -263 128 -2 5 -8 8 -13 8 -4 0 -40 20 -78 45 -211 137 -399 329 -523 536 -41 68 -108 202 -108 216 0 3 -6 19 -14 36 -36 83 -61 177 -92 342 -24 125 -23 413 0 555 31 185 83 388 117 452 5 10 9 23 9 30 1 7 9 31 20 53 11 22 19 44 20 48 0 17 126 265 176 348 88 146 256 377 349 478 87 96 264 272 347 344 90 79 323 255 393 297 22 13 42 27 45 30 24 30 408 237 555 300 28 12 59 25 70 30 11 5 45 19 75 30 30 11 64 25 75 30 50 22 238 81 335 105 203 50 310 70 450 85 52 6 138 15 190 21 150 17 513 0 670 -31 185 -37 367 -88 447 -125 17 -8 34 -15 37 -15 24 0 315 -155 361 -192 6 -5 33 -25 60 -45 70 -52 127 -104 220 -200 l80 -83 123 0 c101 0 122 3 122 15 0 20 -70 133 -143 230 -77 102 -229 253 -335 334 -114 86 -300 196 -412 245 -19 8 -55 23 -80 34 -185 80 -430 140 -690 168 -96 11 -149 21 -156 30 -17 21 -405 21 -419 0z"/>
   <path d="M3791 12709 c-133 -26 -282 -151 -411 -344 -18 -27 -192 -315 -387 -640 -194 -324 -357 -597 -362 -605 -32 -50 -216 -358 -225 -375 -6 -11 -19 -31 -28 -44 -10 -13 -18 -32 -18 -42 0 -19 12 -19 312 -17 l312 3 27 40 c15 22 40 65 56 95 39 73 120 216 150 263 l23 37 320 0 c309 0 320 -1 330 -20 7 -12 10 -92 10 -208 0 -103 -1 -193 0 -200 0 -10 59 -12 278 -10 l277 3 0 1035 0 1035 -310 1 c-170 1 -330 -2 -354 -7z m111 -871 c-2 -263 -6 -384 -14 -389 -14 -9 -390 -11 -412 -3 -24 9 -20 30 18 93 36 60 67 116 124 221 19 36 38 70 42 75 4 6 31 53 60 105 29 52 67 120 83 150 17 30 39 72 50 93 10 20 26 37 36 37 15 0 16 -33 13 -382z"/>
   <path d="M5242 11948 c-5 -7 -29 -69 -52 -138 -23 -69 -45 -134 -50 -145 -4 -11 -19 -54 -31 -95 -13 -41 -26 -79 -30 -85 -4 -5 -10 -26 -14 -45 -4 -19 -11 -41 -16 -50 -4 -8 -24 -64 -44 -125 -20 -60 -40 -117 -44 -125 -5 -9 -12 -31 -16 -50 -4 -19 -11 -41 -16 -50 -36 -70 -51 -224 -26 -272 22 -43 53 -76 93 -100 38 -22 47 -23 315 -26 l276 -3 11 38 c5 21 26 83 46 137 19 54 33 103 30 108 -3 5 -109 8 -236 7 -170 -1 -233 2 -238 11 -6 10 122 412 142 445 3 6 9 26 13 45 4 19 11 41 16 50 4 8 38 105 74 215 37 110 71 210 77 222 6 11 7 26 4 32 -10 16 -270 15 -284 -1z"/>
   <path d="M6194 11952 c-6 -4 -41 -97 -78 -207 -37 -110 -71 -209 -76 -220 -5 -11 -38 -110 -75 -220 -36 -110 -70 -209 -75 -220 -33 -76 -52 -171 -49 -244 3 -67 8 -83 32 -114 15 -21 47 -47 70 -59 39 -20 60 -22 307 -27 233 -5 266 -4 278 10 20 23 94 248 88 265 -5 12 -43 15 -228 14 -123 0 -229 -1 -235 0 -15 0 -18 46 -4 54 5 3 12 22 16 42 3 20 10 44 15 53 6 9 32 86 60 171 28 85 54 162 59 170 5 9 12 31 16 50 4 19 11 41 16 50 21 38 140 413 135 426 -4 11 -31 14 -133 14 -70 0 -133 -4 -139 -8z"/>
   <path d="M7055 11952 c-11 -7 -28 -55 -46 -132 -10 -44 -23 -98 -53 -217 -8 -32 -22 -87 -31 -123 -9 -36 -23 -92 -31 -125 -8 -33 -22 -87 -30 -120 -8 -33 -22 -86 -30 -117 -7 -32 -21 -84 -28 -115 -8 -32 -22 -85 -30 -118 -8 -33 -24 -96 -35 -139 -12 -44 -20 -84 -18 -89 5 -17 194 -7 262 14 81 25 172 86 227 152 24 29 47 57 53 63 16 18 56 64 115 134 30 35 67 78 82 95 16 16 28 33 28 38 0 4 7 7 15 7 21 0 42 -58 80 -220 31 -132 56 -182 117 -239 47 -44 134 -82 199 -88 l57 -6 7 34 c4 18 11 40 16 49 4 8 24 69 44 135 20 66 40 129 45 140 5 11 19 52 30 90 12 39 26 79 30 90 5 11 31 94 60 185 28 91 55 172 59 180 5 9 12 31 16 50 4 19 11 41 15 50 20 39 110 331 105 340 -7 11 -204 14 -253 4 -24 -5 -32 -13 -38 -37 -3 -17 -10 -38 -15 -47 -4 -8 -31 -85 -59 -170 -28 -85 -55 -164 -60 -175 -5 -11 -25 -69 -45 -130 -20 -60 -40 -119 -45 -130 -5 -11 -12 -35 -15 -52 -16 -81 -46 -10 -74 172 -5 33 -17 103 -25 155 -9 52 -23 136 -32 185 -24 144 -29 166 -37 166 -8 0 -94 -115 -177 -236 -25 -36 -52 -74 -60 -85 -8 -10 -21 -26 -28 -37 -7 -10 -35 -49 -62 -88 -27 -38 -55 -78 -62 -88 -25 -36 -108 -152 -123 -172 -8 -10 -15 -23 -15 -27 0 -4 -7 -8 -16 -8 -18 0 -17 19 10 125 8 33 26 107 40 165 15 58 31 121 36 140 6 19 15 55 21 80 10 44 22 93 54 219 12 52 13 66 3 73 -16 10 -239 10 -253 0z"/>
   <path d="M9471 11937 c-5 -12 -27 -78 -50 -147 -23 -69 -45 -132 -50 -140 -5 -9 -12 -31 -16 -50 -4 -19 -11 -41 -16 -50 -4 -8 -45 -125 -89 -260 -45 -135 -85 -254 -90 -265 -27 -60 -120 -357 -115 -365 8 -13 251 -13 275 0 10 5 22 24 25 42 4 18 11 38 15 43 4 6 11 26 15 45 4 19 11 40 15 45 4 6 11 26 15 45 4 19 11 41 16 50 4 8 31 87 60 175 62 193 61 189 88 193 16 3 21 -2 21 -17 0 -11 6 -40 14 -63 7 -24 23 -79 35 -123 13 -44 26 -91 31 -105 4 -14 16 -59 25 -100 21 -92 43 -136 86 -175 53 -48 106 -67 174 -63 l60 3 30 90 c17 50 33 95 37 100 3 6 9 26 13 45 4 19 11 41 16 50 6 12 97 285 115 348 7 24 43 13 50 -15 7 -32 41 -155 54 -193 22 -66 39 -129 45 -165 30 -174 121 -265 265 -265 67 0 52 -24 130 210 28 85 55 164 60 175 5 11 45 130 90 265 45 135 85 254 90 265 5 11 32 90 60 175 28 85 55 163 60 172 25 45 18 48 -129 48 -103 0 -141 -3 -150 -13 -6 -7 -29 -69 -51 -138 -23 -68 -45 -133 -50 -144 -5 -11 -25 -69 -45 -130 -20 -60 -40 -119 -45 -130 -5 -11 -12 -31 -15 -45 -10 -41 -39 -90 -50 -87 -5 2 -15 26 -22 53 -6 27 -19 74 -28 104 -9 30 -21 73 -26 95 -5 22 -13 49 -18 60 -9 19 -20 61 -42 150 -31 129 -117 212 -229 222 -69 7 -62 17 -124 -168 -70 -209 -127 -372 -136 -394 -5 -11 -14 -39 -20 -62 -6 -24 -15 -44 -20 -44 -6 -1 -15 -2 -22 -3 -6 -1 -17 23 -25 52 -7 28 -19 74 -26 101 -6 27 -15 53 -20 57 -4 4 -7 15 -7 24 0 9 -9 48 -21 86 -11 38 -27 94 -35 124 -41 148 -129 229 -247 230 -40 0 -49 -3 -56 -23z"/>
   <path d="M11750 11940 c-8 -5 -25 -10 -36 -10 -39 0 -164 -73 -217 -125 -70 -68 -118 -151 -162 -281 -20 -60 -40 -116 -44 -124 -5 -9 -12 -31 -16 -50 -4 -19 -11 -39 -15 -45 -4 -5 -11 -26 -15 -45 -4 -19 -11 -39 -15 -45 -4 -5 -11 -26 -15 -45 -4 -19 -11 -41 -16 -50 -21 -39 -49 -146 -55 -207 -13 -146 42 -235 173 -279 33 -11 96 -14 289 -12 l247 3 9 30 c5 17 12 37 15 45 13 34 70 200 69 202 -1 1 -113 5 -251 8 l-250 5 -3 23 c-3 22 40 173 58 202 7 12 47 14 247 11 132 -1 251 1 265 4 20 5 29 15 34 38 3 18 10 37 14 42 4 6 11 26 15 45 4 19 11 41 16 50 4 8 12 29 17 45 6 17 13 38 17 48 7 16 -9 17 -241 17 -137 0 -255 4 -263 9 -11 7 -11 16 3 57 23 69 51 111 88 134 30 18 51 20 251 20 124 0 226 4 237 10 11 6 21 26 25 50 4 22 10 42 15 45 4 3 11 22 15 42 4 21 11 43 15 48 5 6 12 30 16 53 l7 42 -264 0 c-153 0 -270 -4 -279 -10z"/>
   <path d="M12788 11943 c-80 -3 -99 -7 -107 -21 -5 -9 -41 -114 -80 -232 -40 -118 -76 -224 -80 -235 -5 -11 -19 -51 -31 -90 -11 -38 -25 -79 -30 -90 -5 -11 -32 -90 -60 -175 -28 -85 -54 -162 -59 -170 -5 -9 -12 -31 -16 -50 -4 -19 -11 -39 -15 -45 -4 -5 -11 -26 -15 -45 -4 -19 -10 -39 -13 -45 -14 -22 -40 -110 -36 -117 3 -5 65 -8 138 -8 99 0 136 3 145 13 6 8 22 49 36 93 15 43 29 86 32 94 3 8 25 71 49 140 39 116 44 126 72 134 44 12 81 0 93 -32 11 -27 61 -200 81 -277 5 -22 13 -47 16 -55 3 -8 11 -35 16 -60 l11 -45 178 -3 c97 -1 177 1 177 6 0 10 -17 67 -30 97 -4 11 -18 49 -30 85 -12 36 -29 79 -36 97 -8 17 -14 35 -14 40 0 5 -13 44 -30 86 -16 43 -30 87 -30 97 0 11 19 30 50 49 65 40 133 103 180 167 39 52 80 133 80 156 0 8 5 19 11 25 7 7 12 52 13 111 1 90 -1 103 -28 157 -36 71 -99 114 -201 138 -69 17 -162 19 -437 10z m342 -298 c25 -13 30 -22 30 -53 0 -72 -59 -159 -127 -187 -40 -17 -171 -30 -207 -21 -28 7 -34 32 -16 64 5 9 21 53 36 97 41 124 29 115 150 115 75 0 114 -4 134 -15z"/>
   <path d="M8762 11858 c-17 -46 -60 -173 -96 -283 -37 -110 -70 -207 -75 -215 -5 -9 -12 -31 -16 -50 -4 -19 -11 -41 -16 -50 -4 -8 -38 -105 -74 -215 -37 -110 -69 -207 -72 -215 -28 -69 -59 -176 -53 -183 3 -4 69 -6 145 -5 l139 3 11 35 c5 19 13 40 16 45 4 6 10 26 14 45 4 19 11 41 16 50 4 8 38 105 74 215 36 110 70 207 74 215 5 9 12 31 16 50 4 19 11 41 16 50 4 8 31 85 59 170 28 85 55 162 59 170 5 9 12 31 16 50 4 19 11 40 15 45 4 6 11 25 15 43 4 18 13 45 20 59 26 49 15 53 -135 53 l-137 0 -31 -82z"/>
 </g>

 <!-- chip name -->
 <text x="50" y="75" fill="url(#soc_name)" text-anchor="middle">
  <tspan style="font: 600 32px sans-serif">A63</tspan>
 </text>

 <!-- points -->
 <circle cx="10" cy="90" r="2" fill="#6a6c7f" />
 <circle cx="90" cy="90" r="2" fill="#6a6c7f" />

</svg>
